<?xml version="1.0" encoding="UTF-8" standalone="no"?>
<svg width="170.93671874999998" height="170.93671874999998" viewBox="0 0 266.24999999999994 266.24999999999994"
    class="looka-1j8o68f">
    <defs id="SvgjsDefs1186"></defs>
    <g id="SvgjsG1187" featurekey="rootContainer" transform="matrix(2.5576369250974467,0,0,2.5576369250974467,0,0)"
        fill="#111111">
        <path xmlns="http://www.w3.org/2000/svg" d="M0 0v104.1h104.1V0zm101.7 101.7H2.4V2.4h99.3z"></path>
    </g>
    <g id="SvgjsG1188" featurekey="monogramFeature-0"
        transform="matrix(2.3932389793741033,0,0,2.3932389793741033,87.17940733455752,11.8777266767692)" fill="#5a5d9d">
        <path
            d="M6.8555 40.897999999999996 l-2.6953 0 l5.625 -24.551 l14.707 0 l-5.6836 24.551 l2.7246 0 l-1.9336 7.998 l16.26 0 l-2.5195 11.074 l-30.908 0 z">
        </path>
    </g>
    <g id="SvgjsG1189" featurekey="nameFeature-0"
        transform="matrix(1.563477195612979,0,0,1.563477195612979,33,161.9268318867185)" fill="#111111">
        <path
            d="M3.76 36.24 l5.52 0 l0 3.76 l-9.28 0 l0 -28.72 l3.76 0 l0 24.96 z M20.6 24.92 l-5.52 0 l0 11.28 l5.56 0 l0 3.8 l-9.36 0 l0 -28.56 l9.36 0 l0 3.8 l-5.56 0 l0 5.88 l5.52 0 l0 3.8 z M32.36 40 l-1.44 -9.88 l-4.04 0 l-1.32 9.88 l-3.84 0 l4.32 -28.6 l5.16 0 l5 28.6 l-3.84 0 z M27.4 26.32 l2.96 0 l-1.52 -10.4 z M44.080000000000005 40.08 c-3.24 0 -5.88 -2.64 -5.88 -5.88 l0 -22.72 l3.8 0 l0 22.72 c0 1.16 0.92 2.12 2.08 2.12 s2.08 -0.96 2.08 -2.12 l0 -22.72 l3.8 0 l0 22.72 c0 3.24 -2.64 5.88 -5.88 5.88 z M57.88 40.32 l-0.88 0 c-2.8 0 -5.04 -2.24 -5.04 -5.04 l0 -19.28 c0 -2.8 2.24 -5.08 5.04 -5.08 l0.88 0 c2.8 0 5.04 2.28 5.04 5.08 l0 2.04 l-3.92 0 l0 -2.04 c0 -0.68 -0.48 -1.16 -1.12 -1.16 l-0.88 0 c-0.6 0 -1.16 0.48 -1.16 1.16 l0 19.28 c0 0.6 0.56 1.16 1.16 1.16 l0.88 0 c0.64 0 1.12 -0.56 1.12 -1.16 l0 -10.4 l-2.24 0 l0 -3.88 l6.16 0 l0 14.28 c0 2.8 -2.24 5.04 -5.04 5.04 z M74.24000000000001 24.92 l-5.52 0 l0 11.28 l5.56 0 l0 3.8 l-9.36 0 l0 -28.56 l9.36 0 l0 3.8 l-5.56 0 l0 5.88 l5.52 0 l0 3.8 z M81.28 40.04 l-5 0 l0 -28.52 l5 0 c3.4 0 6.12 2.76 6.12 6.16 l0 16.2 c0 1.64 -0.64 3.2 -1.8 4.36 s-2.68 1.8 -4.32 1.8 z M80.08 15.36 l0 20.84 l1.2 0 c0.6 0 1.2 -0.24 1.64 -0.68 s0.68 -1 0.68 -1.64 l0 -16.2 c0 -1.28 -1.04 -2.32 -2.32 -2.32 l-1.2 0 z M98.80000000000001 40 l-1.44 -9.88 l-4.04 0 l-1.32 9.88 l-3.84 0 l4.32 -28.6 l5.16 0 l5 28.6 l-3.84 0 z M93.84 26.32 l2.96 0 l-1.52 -10.4 z M114.44000000000001 11.36 l0 3.84 l-4.76 0 l0 24.84 l-3.84 0 l0 -24.84 l-5.24 0 l0 -3.84 l13.84 0 z M124.08000000000001 40 l-1.44 -9.88 l-4.04 0 l-1.32 9.88 l-3.84 0 l4.32 -28.6 l5.16 0 l5 28.6 l-3.84 0 z M119.12 26.32 l2.96 0 l-1.52 -10.4 z">
        </path>
    </g>
</svg>